<svg width="251" height="56" viewBox="0 0 251 56" fill="none" xmlns="http://www.w3.org/2000/svg">
<path d="M20.4211 30.3895L15.9481 18.6925C15.7941 18.3005 15.6331 17.8525 15.4651 17.3485C15.3111 16.8305 15.1571 16.2775 15.0031 15.6895C14.8491 16.2915 14.6881 16.8515 14.5201 17.3695C14.3661 17.8735 14.2121 18.3285 14.0581 18.7345L9.60614 30.3895H20.4211ZM29.2831 41.6245H25.8181C25.4261 41.6245 25.1041 41.5265 24.8521 41.3305C24.6141 41.1345 24.4321 40.8825 24.3061 40.5745L21.6391 33.5815H8.36714L5.70014 40.5745C5.58814 40.8405 5.39914 41.0855 5.13314 41.3095C4.88114 41.5195 4.56614 41.6245 4.18814 41.6245H0.723141L12.7351 11.4685H17.2711L29.2831 41.6245ZM40.781 38.7475C42.097 38.7475 43.14 38.4395 43.91 37.8235C44.68 37.1935 45.065 36.3465 45.065 35.2825C45.065 34.8205 44.995 34.3935 44.855 34.0015C44.715 33.5955 44.477 33.2455 44.141 32.9515C43.805 32.6575 43.364 32.4335 42.818 32.2795C42.272 32.1115 41.6 32.0275 40.802 32.0275H36.371V38.7475H40.781ZM36.371 23.0185V29.4235H40.298C40.886 29.4235 41.425 29.3395 41.915 29.1715C42.419 29.0035 42.846 28.7725 43.196 28.4785C43.56 28.1705 43.84 27.8065 44.036 27.3865C44.246 26.9525 44.351 26.4835 44.351 25.9795C44.351 25.6015 44.281 25.2375 44.141 24.8875C44.015 24.5375 43.791 24.2225 43.469 23.9425C43.161 23.6625 42.748 23.4385 42.23 23.2705C41.712 23.1025 41.068 23.0185 40.298 23.0185H36.371ZM40.424 20.2885C41.74 20.2885 42.874 20.4215 43.826 20.6875C44.778 20.9395 45.562 21.2965 46.178 21.7585C46.794 22.2205 47.242 22.7595 47.522 23.3755C47.816 23.9915 47.963 24.6565 47.963 25.3705C47.963 25.8325 47.9 26.3155 47.774 26.8195C47.648 27.3235 47.431 27.8065 47.123 28.2685C46.815 28.7165 46.395 29.1295 45.863 29.5075C45.345 29.8855 44.68 30.1795 43.868 30.3895C45.436 30.6695 46.654 31.2295 47.522 32.0695C48.404 32.9095 48.845 34.0225 48.845 35.4085C48.845 36.4585 48.628 37.3755 48.194 38.1595C47.774 38.9295 47.2 39.5735 46.472 40.0915C45.744 40.6095 44.89 40.9945 43.91 41.2465C42.93 41.4985 41.894 41.6245 40.802 41.6245H32.465V20.2885H40.424ZM71.3868 23.3965H63.3438V41.6245H59.2278V23.3965H51.1848V20.2885H71.3868V23.3965ZM83.5366 19.9525C85.1046 19.9525 86.5186 20.2115 87.7786 20.7295C89.0526 21.2335 90.1306 21.9685 91.0126 22.9345C91.9086 23.8865 92.5946 25.0415 93.0706 26.3995C93.5466 27.7435 93.7846 29.2555 93.7846 30.9355C93.7846 32.6155 93.5466 34.1345 93.0706 35.4925C92.5946 36.8505 91.9086 38.0055 91.0126 38.9575C90.1306 39.9095 89.0526 40.6445 87.7786 41.1625C86.5186 41.6665 85.1046 41.9185 83.5366 41.9185C81.9546 41.9185 80.5266 41.6665 79.2526 41.1625C77.9926 40.6445 76.9146 39.9095 76.0186 38.9575C75.1226 38.0055 74.4296 36.8505 73.9396 35.4925C73.4636 34.1345 73.2256 32.6155 73.2256 30.9355C73.2256 29.2555 73.4636 27.7435 73.9396 26.3995C74.4296 25.0415 75.1226 23.8865 76.0186 22.9345C76.9146 21.9685 77.9926 21.2335 79.2526 20.7295C80.5266 20.2115 81.9546 19.9525 83.5366 19.9525ZM83.5366 38.7265C85.5526 38.7265 87.0576 38.0475 88.0516 36.6895C89.0456 35.3315 89.5426 33.4205 89.5426 30.9565C89.5426 28.4925 89.0456 26.5815 88.0516 25.2235C87.0576 23.8515 85.5526 23.1655 83.5366 23.1655C81.4926 23.1655 79.9666 23.8515 78.9586 25.2235C77.9646 26.5815 77.4676 28.4925 77.4676 30.9565C77.4676 33.4205 77.9646 35.3315 78.9586 36.6895C79.9666 38.0475 81.4926 38.7265 83.5366 38.7265ZM115.786 25.2445V14.9965H110.053C108.919 14.9965 107.953 15.1225 107.155 15.3745C106.357 15.6125 105.706 15.9555 105.202 16.4035C104.698 16.8515 104.327 17.3905 104.089 18.0205C103.865 18.6365 103.753 19.3225 103.753 20.0785C103.753 20.8765 103.865 21.5975 104.089 22.2415C104.327 22.8855 104.691 23.4315 105.181 23.8795C105.685 24.3135 106.336 24.6495 107.134 24.8875C107.932 25.1255 108.898 25.2445 110.032 25.2445H115.786ZM120.259 41.6245H115.786V28.7725H111.943C111.579 28.7725 111.236 28.8075 110.914 28.8775C110.592 28.9335 110.277 29.0455 109.969 29.2135C109.661 29.3675 109.36 29.5915 109.066 29.8855C108.772 30.1655 108.471 30.5295 108.163 30.9775L101.926 40.0285C101.646 40.5185 101.268 40.9105 100.792 41.2045C100.33 41.4845 99.7768 41.6245 99.1328 41.6245H95.7728L103.354 30.7255C104.18 29.4655 105.181 28.5695 106.357 28.0375C105.181 27.7855 104.152 27.4215 103.27 26.9455C102.388 26.4555 101.653 25.8745 101.065 25.2025C100.491 24.5165 100.057 23.7465 99.7628 22.8925C99.4828 22.0385 99.3428 21.1145 99.3428 20.1205C99.3428 18.8325 99.5808 17.6565 100.057 16.5925C100.533 15.5285 101.226 14.6185 102.136 13.8625C103.06 13.1065 104.18 12.5185 105.496 12.0985C106.826 11.6785 108.345 11.4685 110.053 11.4685H120.259V41.6245ZM144.939 41.6245H140.823V23.3965H131.058V41.6245H126.963V20.2885H144.939V41.6245ZM160.183 19.9525C161.751 19.9525 163.165 20.2115 164.425 20.7295C165.699 21.2335 166.777 21.9685 167.659 22.9345C168.555 23.8865 169.241 25.0415 169.717 26.3995C170.193 27.7435 170.431 29.2555 170.431 30.9355C170.431 32.6155 170.193 34.1345 169.717 35.4925C169.241 36.8505 168.555 38.0055 167.659 38.9575C166.777 39.9095 165.699 40.6445 164.425 41.1625C163.165 41.6665 161.751 41.9185 160.183 41.9185C158.601 41.9185 157.173 41.6665 155.899 41.1625C154.639 40.6445 153.561 39.9095 152.665 38.9575C151.769 38.0055 151.076 36.8505 150.586 35.4925C150.11 34.1345 149.872 32.6155 149.872 30.9355C149.872 29.2555 150.11 27.7435 150.586 26.3995C151.076 25.0415 151.769 23.8865 152.665 22.9345C153.561 21.9685 154.639 21.2335 155.899 20.7295C157.173 20.2115 158.601 19.9525 160.183 19.9525ZM160.183 38.7265C162.199 38.7265 163.704 38.0475 164.698 36.6895C165.692 35.3315 166.189 33.4205 166.189 30.9565C166.189 28.4925 165.692 26.5815 164.698 25.2235C163.704 23.8515 162.199 23.1655 160.183 23.1655C158.139 23.1655 156.613 23.8515 155.605 25.2235C154.611 26.5815 154.114 28.4925 154.114 30.9565C154.114 33.4205 154.611 35.3315 155.605 36.6895C156.613 38.0475 158.139 38.7265 160.183 38.7265ZM193.398 20.2885V41.6245H189.282V31.7965H179.517V41.6245H175.422V20.2885H179.517V28.6885H189.282V20.2885H193.398ZM218.072 20.2885V41.6245H213.956V27.6805C213.956 27.4005 213.97 27.0925 213.998 26.7565C214.026 26.4065 214.068 26.0565 214.124 25.7065C213.984 26.0005 213.844 26.2805 213.704 26.5465C213.578 26.7985 213.445 27.0225 213.305 27.2185L203.498 40.5955C203.344 40.8475 203.141 41.0855 202.889 41.3095C202.637 41.5335 202.35 41.6455 202.028 41.6455H199.55V20.2885H203.645V34.2535C203.645 34.5335 203.631 34.8485 203.603 35.1985C203.575 35.5345 203.533 35.8705 203.477 36.2065C203.757 35.5905 204.03 35.0935 204.296 34.7155L214.103 21.3175C214.257 21.0795 214.46 20.8485 214.712 20.6245C214.978 20.4005 215.272 20.2885 215.594 20.2885H218.072ZM235.403 30.1375V23.0185H232.022C231.252 23.0185 230.608 23.1305 230.09 23.3545C229.572 23.5645 229.152 23.8445 228.83 24.1945C228.522 24.5445 228.298 24.9295 228.158 25.3495C228.032 25.7695 227.969 26.1895 227.969 26.6095C227.969 27.7155 228.368 28.5835 229.166 29.2135C229.964 29.8295 231.049 30.1375 232.421 30.1375H235.403ZM239.309 20.2885V41.6245H235.403V32.7415H233.954C233.548 32.7415 233.212 32.7765 232.946 32.8465C232.68 32.9025 232.449 32.9935 232.253 33.1195C232.071 33.2455 231.91 33.3995 231.77 33.5815C231.63 33.7635 231.49 33.9665 231.35 34.1905L227.003 40.1965C226.863 40.4345 226.716 40.6445 226.562 40.8265C226.408 40.9945 226.233 41.1415 226.037 41.2675C225.841 41.3795 225.61 41.4705 225.344 41.5405C225.078 41.5965 224.763 41.6245 224.399 41.6245H221.564L227.549 33.7075C228.067 32.8255 228.774 32.2305 229.67 31.9225C228.606 31.7825 227.703 31.5305 226.961 31.1665C226.233 30.7885 225.638 30.3545 225.176 29.8645C224.714 29.3605 224.378 28.8145 224.168 28.2265C223.958 27.6245 223.853 27.0155 223.853 26.3995C223.853 25.6435 224 24.9015 224.294 24.1735C224.588 23.4455 225.057 22.7945 225.701 22.2205C226.345 21.6465 227.178 21.1845 228.2 20.8345C229.222 20.4705 230.454 20.2885 231.896 20.2885H239.309Z" fill="#131212"/>
<path d="M1.26074 53.3169H245.597" stroke="#833372" stroke-width="4"/>
</svg>
