<svg width="251" height="56" fill="none" xmlns="http://www.w3.org/2000/svg"><path d="m20.421 30.39-4.473-11.698c-.154-.392-.315-.84-.483-1.343a52.6 52.6 0 0 1-.462-1.66 27.757 27.757 0 0 1-.483 1.68c-.154.505-.308.96-.462 1.366L9.606 30.39h10.815Zm8.862 11.234h-3.465c-.392 0-.714-.098-.966-.294a1.882 1.882 0 0 1-.546-.755L21.64 33.58H8.367L5.7 40.575a1.97 1.97 0 0 1-.567.736c-.252.21-.567.314-.945.314H.723l12.012-30.156h4.536l12.012 30.156Zm11.498-2.877c1.316 0 2.359-.307 3.129-.923.77-.63 1.155-1.477 1.155-2.541 0-.462-.07-.89-.21-1.282a2.43 2.43 0 0 0-.714-1.05c-.336-.294-.777-.517-1.323-.672-.546-.168-1.218-.252-2.016-.252h-4.431v6.72h4.41Zm-4.41-15.729v6.405h3.927c.588 0 1.127-.083 1.617-.251a3.87 3.87 0 0 0 1.281-.694c.364-.308.644-.672.84-1.091.21-.434.315-.904.315-1.407 0-.378-.07-.742-.21-1.093a2.272 2.272 0 0 0-.672-.945c-.308-.28-.721-.503-1.239-.672-.518-.168-1.162-.252-1.932-.252h-3.927Zm4.053-2.73c1.316 0 2.45.134 3.402.4.952.252 1.736.609 2.352 1.07.616.463 1.064 1.002 1.344 1.617.294.616.441 1.282.441 1.995 0 .462-.063.945-.189 1.45a4.624 4.624 0 0 1-.651 1.448c-.308.448-.728.861-1.26 1.24-.518.378-1.183.672-1.995.882 1.568.28 2.786.84 3.654 1.68.882.84 1.323 1.953 1.323 3.338 0 1.05-.217 1.968-.651 2.752a5.69 5.69 0 0 1-1.722 1.932c-.728.517-1.582.903-2.562 1.154-.98.252-2.016.378-3.108.378h-8.337V20.288h7.959Zm30.963 3.108h-8.043v18.228h-4.116V23.396h-8.043v-3.108h20.202v3.108Zm12.15-3.444c1.568 0 2.982.26 4.242.777 1.274.505 2.352 1.24 3.234 2.206.896.952 1.582 2.107 2.058 3.465.476 1.344.714 2.856.714 4.536 0 1.68-.238 3.199-.714 4.556-.476 1.358-1.162 2.514-2.058 3.466-.882.952-1.96 1.687-3.234 2.205-1.26.504-2.674.756-4.242.756-1.582 0-3.01-.252-4.284-.756a9.165 9.165 0 0 1-3.234-2.205c-.896-.953-1.59-2.108-2.08-3.465-.475-1.358-.713-2.878-.713-4.558 0-1.68.238-3.191.714-4.535.49-1.358 1.183-2.513 2.079-3.465a8.813 8.813 0 0 1 3.234-2.205c1.274-.518 2.702-.777 4.284-.777Zm0 18.774c2.016 0 3.52-.678 4.515-2.036.994-1.358 1.49-3.27 1.49-5.733 0-2.465-.496-4.376-1.49-5.733-.994-1.372-2.5-2.058-4.515-2.058-2.044 0-3.57.686-4.578 2.058-.994 1.357-1.491 3.268-1.491 5.732 0 2.464.497 4.375 1.49 5.734 1.009 1.358 2.535 2.037 4.579 2.037Zm32.249-13.482V14.996h-5.733c-1.134 0-2.1.127-2.898.378-.798.239-1.449.582-1.953 1.03a4.046 4.046 0 0 0-1.113 1.616c-.224.617-.336 1.303-.336 2.058 0 .799.112 1.52.336 2.163.238.645.602 1.19 1.092 1.639.504.434 1.155.77 1.953 1.008.798.237 1.764.356 2.898.356h5.754Zm4.473 16.38h-4.473V28.772h-3.843c-.364 0-.707.036-1.029.106a3.062 3.062 0 0 0-.945.335 3.514 3.514 0 0 0-.903.672c-.294.28-.595.644-.903 1.092l-6.237 9.052c-.28.49-.658.881-1.134 1.175-.462.28-1.015.42-1.66.42h-3.36l7.582-10.899c.826-1.26 1.827-2.155 3.003-2.688-1.176-.252-2.205-.615-3.087-1.091-.882-.49-1.617-1.072-2.205-1.744a7.246 7.246 0 0 1-1.302-2.31 8.848 8.848 0 0 1-.42-2.771c0-1.288.238-2.464.714-3.528a7.48 7.48 0 0 1 2.079-2.73c.924-.756 2.044-1.345 3.36-1.764 1.33-.42 2.849-.63 4.557-.63h10.206v30.155Zm24.68 0h-4.116V23.396h-9.765v18.228h-4.095V20.288h17.976v21.336Zm15.244-21.672c1.568 0 2.982.26 4.242.777 1.274.505 2.352 1.24 3.234 2.206.896.952 1.582 2.107 2.058 3.465.476 1.344.714 2.856.714 4.536 0 1.68-.238 3.199-.714 4.556-.476 1.358-1.162 2.514-2.058 3.466-.882.952-1.96 1.687-3.234 2.205-1.26.504-2.674.756-4.242.756-1.582 0-3.01-.252-4.284-.756a9.165 9.165 0 0 1-3.234-2.205c-.896-.953-1.589-2.108-2.079-3.465-.476-1.358-.714-2.878-.714-4.558 0-1.68.238-3.191.714-4.535.49-1.358 1.183-2.513 2.079-3.465a8.813 8.813 0 0 1 3.234-2.205c1.274-.518 2.702-.777 4.284-.777Zm0 18.774c2.016 0 3.521-.678 4.515-2.036.994-1.358 1.491-3.27 1.491-5.733 0-2.465-.497-4.376-1.491-5.733-.994-1.372-2.499-2.058-4.515-2.058-2.044 0-3.57.686-4.578 2.058-.994 1.357-1.491 3.268-1.491 5.732 0 2.464.497 4.375 1.491 5.734 1.008 1.358 2.534 2.037 4.578 2.037Zm33.215-18.438v21.336h-4.116v-9.828h-9.765v9.828h-4.095V20.288h4.095v8.4h9.765v-8.4h4.116Zm24.674 0v21.336h-4.116V27.68a13.415 13.415 0 0 1 .168-1.974c-.14.294-.28.575-.42.84a5.011 5.011 0 0 1-.399.672l-9.807 13.378a3.18 3.18 0 0 1-.609.714 1.26 1.26 0 0 1-.861.335h-2.478V20.288h4.095v13.966a11.962 11.962 0 0 1-.168 1.953c.28-.617.553-1.114.819-1.492l9.807-13.398c.154-.238.357-.468.609-.692.266-.224.56-.337.882-.337h2.478Zm17.331 9.85v-7.12h-3.381c-.77 0-1.414.113-1.932.337-.518.21-.938.49-1.26.84-.308.35-.532.735-.672 1.154-.126.42-.189.84-.189 1.26 0 1.106.399 1.974 1.197 2.604.798.616 1.883.924 3.255.924h2.982Zm3.906-9.85v21.336h-3.906v-8.883h-1.449c-.406 0-.742.035-1.008.105a2.05 2.05 0 0 0-.693.274c-.182.126-.343.28-.483.462-.14.181-.28.385-.42.608l-4.347 6.007c-.14.237-.287.447-.441.63a2.66 2.66 0 0 1-.525.44 2.862 2.862 0 0 1-.693.273 4.642 4.642 0 0 1-.945.084h-2.835l5.985-7.916c.518-.883 1.225-1.477 2.121-1.785-1.064-.14-1.967-.392-2.709-.756-.728-.379-1.323-.813-1.785-1.303a4.813 4.813 0 0 1-1.008-1.637 5.512 5.512 0 0 1-.315-1.828c0-.756.147-1.498.441-2.226.294-.727.763-1.378 1.407-1.952.644-.575 1.477-1.037 2.499-1.387 1.022-.363 2.254-.546 3.696-.546h7.413Z" fill="#131212"/><path d="M1.26 53.317h244.337" stroke="#833372" stroke-width="4"/></svg>